<?xml version="1.0" encoding="utf-8"?>
<!-- Generator: Adobe Illustrator 28.1.0, SVG Export Plug-In . SVG Version: 6.00 Build 0)  -->
<svg version="1.1" xmlns="http://www.w3.org/2000/svg" xmlns:xlink="http://www.w3.org/1999/xlink" x="0px" y="0px"
	 viewBox="0 0 310.4 57.4" style="enable-background:new 0 0 310.4 57.4;" xml:space="preserve">
<style type="text/css">
	.st0{fill:#B4B4B4;}
	.st1{fill:#003054;}
</style>
<g id="Alles_aus_einer_Hand">
	<g>
		<g>
			<path class="st0" d="M230.7,43.8h3.3c0.8,0,1.3,0.1,1.7,0.2c0.5,0.2,1,0.4,1.4,0.8c0.4,0.4,0.7,0.9,0.9,1.5
				c0.2,0.6,0.3,1.3,0.3,2.1c0,0.7-0.1,1.4-0.3,1.9c-0.2,0.7-0.6,1.2-1,1.6c-0.3,0.3-0.7,0.6-1.3,0.7c-0.4,0.1-0.9,0.2-1.6,0.2h-3.4
				V43.8z M232.6,45.3v6h1.4c0.5,0,0.9,0,1.1-0.1c0.3-0.1,0.5-0.2,0.7-0.4s0.4-0.5,0.5-0.9s0.2-1,0.2-1.7s-0.1-1.2-0.2-1.6
				s-0.3-0.7-0.5-0.9c-0.2-0.2-0.5-0.4-0.8-0.4c-0.3-0.1-0.8-0.1-1.5-0.1H232.6z"/>
			<path class="st0" d="M239.8,52.9v-9.1h1.8v9.1H239.8z"/>
			<path class="st0" d="M243,49.9l1.8-0.2c0.1,0.6,0.3,1,0.7,1.3c0.3,0.3,0.8,0.4,1.3,0.4c0.6,0,1-0.1,1.3-0.4
				c0.3-0.2,0.4-0.5,0.4-0.9c0-0.2-0.1-0.4-0.2-0.5c-0.1-0.2-0.3-0.3-0.7-0.4c-0.2-0.1-0.7-0.2-1.5-0.4c-1-0.2-1.7-0.5-2.1-0.9
				c-0.6-0.5-0.8-1.1-0.8-1.8c0-0.5,0.1-0.9,0.4-1.3c0.3-0.4,0.6-0.7,1.1-0.9c0.5-0.2,1.1-0.3,1.8-0.3c1.1,0,2,0.2,2.6,0.7
				c0.6,0.5,0.9,1.2,0.9,2l-1.8,0.1c-0.1-0.5-0.2-0.8-0.5-1c-0.3-0.2-0.6-0.3-1.2-0.3c-0.5,0-0.9,0.1-1.2,0.3
				c-0.2,0.1-0.3,0.3-0.3,0.6c0,0.2,0.1,0.4,0.3,0.6c0.2,0.2,0.8,0.4,1.7,0.6c0.9,0.2,1.5,0.4,2,0.7c0.4,0.2,0.8,0.5,1,0.9
				s0.4,0.9,0.4,1.4c0,0.5-0.1,1-0.4,1.5s-0.7,0.8-1.2,1s-1.2,0.3-2,0.3c-1.1,0-2-0.3-2.6-0.8S243.1,50.9,243,49.9z"/>
			<path class="st0" d="M257.4,52.9v-7.5h-2.7v-1.5h7.2v1.5h-2.7v7.5H257.4z"/>
			<path class="st0" d="M263.1,52.9v-9.1h1.8v9.1H263.1z"/>
			<path class="st0" d="M272.4,49.5l1.8,0.6c-0.3,1-0.7,1.7-1.4,2.2c-0.6,0.5-1.4,0.7-2.4,0.7c-1.2,0-2.2-0.4-3-1.2
				c-0.8-0.8-1.2-1.9-1.2-3.4c0-1.5,0.4-2.7,1.2-3.5s1.8-1.3,3.1-1.3c1.1,0,2,0.3,2.7,1c0.4,0.4,0.7,0.9,0.9,1.7l-1.8,0.4
				c-0.1-0.5-0.3-0.8-0.7-1.1s-0.8-0.4-1.2-0.4c-0.7,0-1.2,0.2-1.6,0.7s-0.6,1.3-0.6,2.3c0,1.1,0.2,2,0.6,2.4
				c0.4,0.5,0.9,0.7,1.6,0.7c0.5,0,0.9-0.2,1.3-0.5S272.3,50.2,272.4,49.5z"/>
			<path class="st0" d="M275.8,52.9v-1.7h1.7v1.7H275.8z"/>
			<path class="st0" d="M290.5,52.9h-2l-0.8-2.1h-3.6l-0.7,2.1h-1.9l3.5-9.1h1.9L290.5,52.9z M287.2,49.3l-1.2-3.4l-1.2,3.4H287.2z"
				/>
			<path class="st0" d="M291.5,52.9v-1.7h1.7v1.7H291.5z"/>
			<path class="st0" d="M294.6,49.9l1.8-0.2c0.1,0.6,0.3,1,0.7,1.3c0.3,0.3,0.8,0.4,1.3,0.4c0.6,0,1-0.1,1.3-0.4
				c0.3-0.2,0.4-0.5,0.4-0.9c0-0.2-0.1-0.4-0.2-0.5c-0.1-0.2-0.3-0.3-0.7-0.4c-0.2-0.1-0.7-0.2-1.5-0.4c-1-0.2-1.7-0.5-2.1-0.9
				c-0.6-0.5-0.8-1.1-0.8-1.8c0-0.5,0.1-0.9,0.4-1.3c0.3-0.4,0.6-0.7,1.1-0.9c0.5-0.2,1.1-0.3,1.8-0.3c1.1,0,2,0.2,2.6,0.7
				s0.9,1.2,0.9,2l-1.8,0.1c-0.1-0.5-0.2-0.8-0.5-1c-0.3-0.2-0.6-0.3-1.2-0.3c-0.5,0-0.9,0.1-1.2,0.3c-0.2,0.1-0.3,0.3-0.3,0.6
				c0,0.2,0.1,0.4,0.3,0.6c0.2,0.2,0.8,0.4,1.7,0.6c0.9,0.2,1.5,0.4,2,0.7c0.4,0.2,0.8,0.5,1,0.9c0.2,0.4,0.4,0.9,0.4,1.4
				c0,0.5-0.1,1-0.4,1.5c-0.3,0.5-0.7,0.8-1.2,1c-0.5,0.2-1.2,0.3-2,0.3c-1.1,0-2-0.3-2.6-0.8C295,51.7,294.7,50.9,294.6,49.9z"/>
			<path class="st0" d="M303.5,52.9v-1.7h1.7v1.7H303.5z"/>
		</g>
		<g>
			<path class="st0" d="M245.8,52.2h1.6v1.1c0,0.5,0,0.8-0.1,1.1c-0.1,0.3-0.2,0.5-0.5,0.7c-0.2,0.2-0.5,0.4-0.8,0.5l-0.3-0.7
				c0.3-0.1,0.6-0.3,0.7-0.4c0.1-0.2,0.2-0.4,0.2-0.8h-0.8V52.2z"/>
		</g>
		<g>
			<path class="st0" d="M297.6,52.2h1.6v1.1c0,0.5,0,0.8-0.1,1.1c-0.1,0.3-0.2,0.5-0.5,0.7c-0.2,0.2-0.5,0.4-0.8,0.5l-0.3-0.7
				c0.3-0.1,0.6-0.3,0.7-0.4c0.1-0.2,0.2-0.4,0.2-0.8h-0.8V52.2z"/>
		</g>
		<g>
			<path class="st0" d="M263.1,43.1v-1.7h1.7v1.7H263.1z"/>
		</g>
	</g>
</g>
<g id="IPOS-Spedition">
	<g>
		<g>
			<path class="st1" d="M11.4,36.5c0,1.2-0.6,1.9-1.8,1.9c-0.5,0-1,0-1.4,0c-0.4,0-0.7-0.1-0.9-0.1c-0.8-0.2-1.1-0.8-1.1-1.7V11.4
				c0-0.9,0.4-1.5,1.1-1.7c0.2,0,0.4-0.1,0.8-0.1c0.4,0,0.9,0,1.5,0c1.2,0,1.8,0.6,1.8,1.8V36.5L11.4,36.5z M50.1,20.5
				c0,2.9-1.4,5-4.3,6.2c-2.2,0.9-4.9,1.4-8,1.4H19.6v8.4c0,0.9-0.4,1.5-1.1,1.7c-0.2,0.1-1,0.2-2.3,0.2c-1.2,0-1.8-0.6-1.8-1.9
				V11.4c0-1.2,0.6-1.8,1.8-1.8H38c3,0,5.5,0.4,7.5,1.2c3,1.1,4.6,2.9,4.6,5.2V20.5L50.1,20.5z M44.9,20.3v-3.9
				c0-1.7-2.3-2.5-6.9-2.5H19.6v9.9h18.5C42.6,23.8,44.9,22.6,44.9,20.3L44.9,20.3z M87.7,30.6c0,5.2-4.4,7.7-13.3,7.7h-8.2
				c-3.6,0-6.4-0.5-8.5-1.4c-3.2-1.3-4.8-3.4-4.8-6.3V17.4c0-5.2,4.4-7.8,13.3-7.8h8.2c4.1,0,7.1,0.4,8.8,1.1
				c3.1,1.2,4.6,3.4,4.6,6.7V30.6L87.7,30.6z M82.4,30.5v-13c0-2.4-2.7-3.6-8-3.6h-8.3c-5.4,0-8,1.2-8,3.6v13c0,2.3,2.7,3.5,8,3.5
				h8.3C79.8,34,82.4,32.9,82.4,30.5L82.4,30.5z M123.1,31.2c0,1.5-0.2,2.7-0.7,3.6c-1.3,2.3-5.3,3.5-11.9,3.5H92.3
				c-1.2,0-1.8-0.6-1.8-1.9c0-0.9,0.1-1.4,0.3-1.8c0.3-0.5,0.8-0.7,1.5-0.7h18.2c4.9,0,7.3-0.9,7.3-2.7v-2.5c0-1.8-2.4-2.7-7.1-2.9
				l-8.7-0.3c-0.4,0-1,0-1.7-0.1c-0.7,0-1.7-0.1-2.7-0.2c-1.9-0.2-3.5-0.8-4.9-1.9c-1.5-1.1-2.2-2.6-2.2-4.5v-2.2
				c0-3.4,1.9-5.6,5.6-6.6c1.8-0.5,5-0.7,9.8-0.7c1.2,0,1.8,0.8,1.8,2.4c0,0.9-0.4,1.5-1.1,1.7c-0.1,0.1-0.9,0.1-2.2,0.1
				c-5.7,0-8.6,1-8.6,3v2c0,1.2,1.1,2.1,3.2,2.4c0.4,0.1,1,0.1,1.8,0.2c0.8,0,1.7,0.1,2.9,0.1h7c3.4,0,6,0.4,7.9,1.3
				c3.1,1.3,4.6,3.2,4.6,5.8V31.2L123.1,31.2z M158.6,26.5c0,1.2-0.6,1.8-1.9,1.8h-15.5c-0.9,0-1.5-0.2-1.7-0.5
				c-0.1-0.2-0.2-0.8-0.2-1.7c0-1.2,0.6-1.8,1.9-1.8h15.5c0.9,0,1.4,0.2,1.6,0.5C158.5,25,158.6,25.5,158.6,26.5L158.6,26.5z"/>
		</g>
	</g>
</g>
<g id="Icon_-_1">
</g>
<g id="Icon_-_2">
</g>
<g id="Icon_-_3">
</g>
<g id="Icon_-_4">
</g>
<g id="Icon_-_5">
	<g>
		<path class="st0" d="M186.1,25.9c-7.8,0-11.7-2.4-11.7-7.3v-1.5c0-4.9,3.9-7.3,11.7-7.3h3.9c0.6,0,1,0.2,1.2,0.5
			c0.2,0.4,0.3,0.9,0.3,1.6c0,0.7-0.1,1.2-0.3,1.6c-0.2,0.4-0.6,0.5-1.2,0.5h-4.1c-2.3,0-3.9,0.3-4.9,0.9c-1,0.6-1.4,1.3-1.4,2.2
			v1.5c0,0.8,0.5,1.6,1.4,2.2c1,0.6,2.6,0.9,4.9,0.9h9.3c7.8,0,11.7,2.4,11.7,7.3v2c0,4.9-3.9,7.3-11.7,7.3h-19.3
			c-0.6,0-1-0.2-1.2-0.5c-0.2-0.4-0.3-0.9-0.3-1.6c0-0.7,0.1-1.2,0.3-1.6c0.2-0.4,0.6-0.5,1.2-0.5h19.4c2.3,0,3.9-0.3,4.9-0.9
			c1-0.6,1.4-1.3,1.4-2.2v-2c0-0.8-0.5-1.6-1.4-2.2c-1-0.6-2.6-0.9-4.9-0.9H186.1z"/>
		<path class="st0" d="M213,16.1v-4.6c0-0.8,0.2-1.3,0.6-1.5c0.4-0.2,1-0.4,1.9-0.4c0.8,0,1.5,0.1,1.9,0.4c0.4,0.2,0.6,0.7,0.6,1.5
			v4.6h8.3c0.6,0,1,0.2,1.2,0.5c0.2,0.3,0.3,0.8,0.3,1.5c0,0.7-0.1,1.1-0.3,1.5c-0.2,0.3-0.6,0.5-1.2,0.5H218v16.6
			c0,0.8-0.2,1.3-0.6,1.5c-0.4,0.2-1.1,0.4-1.9,0.4c-0.8,0-1.5-0.1-1.9-0.4c-0.4-0.2-0.6-0.7-0.6-1.5V20h-2.2c-0.6,0-1-0.2-1.2-0.5
			c-0.2-0.3-0.3-0.8-0.3-1.5c0-0.7,0.1-1.2,0.3-1.5c0.2-0.3,0.6-0.5,1.2-0.5H213z"/>
		<path class="st0" d="M234.8,29.4v2c0,0.8,0.5,1.5,1.5,2c1,0.6,2.6,0.8,4.8,0.8h4.5c0.6,0,1,0.2,1.2,0.5c0.2,0.3,0.3,0.8,0.3,1.5
			c0,0.7-0.1,1.2-0.3,1.5c-0.2,0.3-0.6,0.5-1.2,0.5H241c-7.4,0-11.1-2.3-11.1-6.9v-8.5c0-4.6,3.7-6.9,11.1-6.9h9.1
			c3.9,0,6.8,0.6,8.5,1.7c1.7,1.1,2.6,2.8,2.6,5.2v4.5c0,0.8-0.1,1.3-0.4,1.6c-0.3,0.3-0.9,0.4-1.9,0.4H234.8z M234.8,25.5h21.4
			v-2.6c0-0.9-0.5-1.6-1.5-2.1c-1-0.5-2.6-0.7-4.8-0.7h-8.8c-2.2,0-3.8,0.3-4.8,0.8c-1,0.6-1.5,1.2-1.5,2V25.5z"/>
		<path class="st0" d="M269.7,29.4v2c0,0.8,0.5,1.5,1.5,2c1,0.6,2.6,0.8,4.8,0.8h4.5c0.6,0,1,0.2,1.2,0.5c0.2,0.3,0.3,0.8,0.3,1.5
			c0,0.7-0.1,1.2-0.3,1.5c-0.2,0.3-0.6,0.5-1.2,0.5h-4.7c-7.4,0-11.1-2.3-11.1-6.9v-8.5c0-4.6,3.7-6.9,11.1-6.9h9.1
			c3.9,0,6.8,0.6,8.5,1.7c1.7,1.1,2.6,2.8,2.6,5.2v4.5c0,0.8-0.1,1.3-0.4,1.6c-0.3,0.3-0.9,0.4-1.9,0.4H269.7z M269.7,25.5h21.4
			v-2.6c0-0.9-0.5-1.6-1.5-2.1c-1-0.5-2.6-0.7-4.8-0.7H276c-2.2,0-3.8,0.3-4.8,0.8c-1,0.6-1.5,1.2-1.5,2V25.5z"/>
		<path class="st0" d="M304.9,36.6c0,0.8-0.2,1.3-0.6,1.5c-0.4,0.2-1,0.4-1.9,0.4c-0.8,0-1.5-0.1-1.9-0.4s-0.6-0.7-0.6-1.5V11.4
			c0-0.8,0.2-1.3,0.6-1.5c0.4-0.2,1-0.4,1.9-0.4c0.8,0,1.5,0.1,1.9,0.4c0.4,0.2,0.6,0.7,0.6,1.5V36.6z"/>
	</g>
</g>
</svg>
